# xmcd CD database file
#
# Track frame offsets:
#	150
#	17612
#	37291
#	54552
#	74078
#	96387
#	112968
#	128979
#	144743
#	166609
#	188585
#	205956
#	219284
#
# Disc length: 3149 seconds
#
# Revision: 0
# Processed by: cddbd v1.5.2PL0 Copyright (c) Steve Scherf et al.
# Submitted via: CDex 1.51
#
DISCID=c00c4b0d
DTITLE=Tony Pal - Closet Full of Memories
DYEAR=2010
DGENRE=Country
TTITLE0=Mama Don't Care
TTITLE1=Broken Hearted
TTITLE2=Get Myself Back To You
TTITLE3=Little Darlin
TTITLE4=Searching For Love
TTITLE5=Don't Leave Me Alone
TTITLE6=Closet Full Of Memories
TTITLE7=Drop These Chains
TTITLE8=Where Were You
TTITLE9=Forever In My Mind
TTITLE10=Take My Love
TTITLE11=From This Heart
TTITLE12=Honky Tonk Angel
EXTD=YEAR: 2010
EXTT0=
EXTT1=
EXTT2=
EXTT3=
EXTT4=
EXTT5=
EXTT6=
EXTT7=
EXTT8=
EXTT9=
EXTT10=
EXTT11=
EXTT12=
PLAYORDER=
